<svg width="21" height="20" viewBox="0 0 21 20" fill="none" xmlns="http://www.w3.org/2000/svg">
<path d="M1.83325 20C1.43325 20 1.08325 19.85 0.783252 19.55C0.483252 19.25 0.333252 18.9 0.333252 18.5V6.5C0.333252 6.1 0.483252 5.75 0.783252 5.45C1.08325 5.15 1.43325 5 1.83325 5H7.75825V1.5C7.75825 1.1 7.90825 0.75 8.20825 0.45C8.50825 0.15 8.85825 0 9.25825 0H11.4333C11.8333 0 12.1833 0.15 12.4833 0.45C12.7833 0.75 12.9333 1.1 12.9333 1.5V5H18.8333C19.2333 5 19.5833 5.15 19.8833 5.45C20.1833 5.75 20.3333 6.1 20.3333 6.5V18.5C20.3333 18.9 20.1833 19.25 19.8833 19.55C19.5833 19.85 19.2333 20 18.8333 20H1.83325ZM1.83325 18.5H18.8333V6.5H12.9333C12.9333 6.96667 12.7791 7.33333 12.4708 7.6C12.1624 7.86667 11.7749 8 11.3083 8H9.35825C8.90825 8 8.52909 7.86667 8.22075 7.6C7.91242 7.33333 7.75825 6.96667 7.75825 6.5H1.83325V18.5ZM4.13325 15.825H10.1083V15.475C10.1083 15.175 10.0333 14.9083 9.88325 14.675C9.73325 14.4417 9.54159 14.2833 9.30825 14.2C8.77492 14.0167 8.35825 13.8958 8.05825 13.8375C7.75825 13.7792 7.46659 13.75 7.18325 13.75C6.86659 13.75 6.52909 13.7875 6.17075 13.8625C5.81242 13.9375 5.40825 14.05 4.95825 14.2C4.70825 14.2833 4.50825 14.4417 4.35825 14.675C4.20825 14.9083 4.13325 15.175 4.13325 15.475V15.825ZM12.5333 14.15H16.7833V12.9H12.5333V14.15ZM7.18325 12.9C7.56659 12.9 7.88742 12.7667 8.14575 12.5C8.40409 12.2333 8.53325 11.9167 8.53325 11.55C8.53325 11.1667 8.40409 10.8458 8.14575 10.5875C7.88742 10.3292 7.56659 10.2 7.18325 10.2C6.81659 10.2 6.49992 10.3292 6.23325 10.5875C5.96659 10.8458 5.83325 11.1667 5.83325 11.55C5.83325 11.9167 5.96659 12.2333 6.23325 12.5C6.49992 12.7667 6.81659 12.9 7.18325 12.9ZM12.5333 11.325H16.7833V10.075H12.5333V11.325ZM9.25825 6.5H11.4333V1.5H9.25825V6.5Z" fill="#95AAFF"/>
</svg>
