<svg width="17" height="20" viewBox="0 0 17 20" fill="none" xmlns="http://www.w3.org/2000/svg">
<path d="M8.33325 20C5.99992 19.4167 4.08325 18.0625 2.58325 15.9375C1.08325 13.8125 0.333252 11.4833 0.333252 8.95V3L8.33325 0L16.3333 3V8.95C16.3333 11.4833 15.5833 13.8125 14.0833 15.9375C12.5833 18.0625 10.6666 19.4167 8.33325 20ZM8.33325 18.45C10.2499 17.8167 11.8124 16.6208 13.0208 14.8625C14.2291 13.1042 14.8333 11.1333 14.8333 8.95V4.05L8.33325 1.6L1.83325 4.05V8.95C1.83325 11.1333 2.43742 13.1042 3.64575 14.8625C4.85409 16.6208 6.41659 17.8167 8.33325 18.45Z" fill="#95AAFF"/>
</svg>
